<svg width="28" height="28" viewBox="0 0 28 28" fill="none" xmlns="http://www.w3.org/2000/svg">
<path d="M6.7457 22.459H15.4218C16.0804 22.459 16.5986 21.9126 16.4673 21.2672C16.105 19.4854 14.9217 16.334 11.0837 16.334C7.24577 16.334 6.06245 19.4854 5.70014 21.2672C5.5689 21.9126 6.08711 22.459 6.7457 22.459Z" stroke="#555555" stroke-width="1.51667" stroke-linecap="round" stroke-linejoin="round"/>
<path d="M18.375 16.334C20.8002 16.334 21.7936 18.8398 22.1945 20.6459C22.4111 21.6214 21.6222 22.459 20.623 22.459H19.5417" stroke="#555555" stroke-width="1.51667" stroke-linecap="round" stroke-linejoin="round"/>
<path d="M14.2917 8.74935C14.2917 10.5213 12.8552 11.9577 11.0833 11.9577C9.31142 11.9577 7.875 10.5213 7.875 8.74935C7.875 6.97744 9.31142 5.54102 11.0833 5.54102C12.8552 5.54102 14.2917 6.97744 14.2917 8.74935Z" stroke="#555555" stroke-width="1.51667" stroke-linecap="round" stroke-linejoin="round"/>
<path d="M17.208 11.9577C18.9799 11.9577 20.1247 10.5213 20.1247 8.74935C20.1247 6.97744 18.9799 5.54102 17.208 5.54102" stroke="#555555" stroke-width="1.51667" stroke-linecap="round" stroke-linejoin="round"/>
</svg>
